<?xml version="1.0" encoding="UTF-8"?>
<svg width="139px" height="69px" viewBox="0 0 139 69" version="1.1" xmlns="http://www.w3.org/2000/svg" xmlns:xlink="http://www.w3.org/1999/xlink">
    <!-- Generator: Sketch 55.2 (78181) - https://sketchapp.com -->
    <title>Logo</title>
    <desc>Created with Sketch.</desc>
    <g id="Symbols" stroke="none" stroke-width="1" fill="none" fill-rule="evenodd">
        <g id="header" transform="translate(-135.000000, -16.000000)">
            <g id="logo" transform="translate(135.000000, 16.000000)">
                <g id="Group" transform="translate(28.365548, 0.000000)">
                    <path d="M26.3993001,34.240001 C23.4338109,37.1200011 19.6302488,38.4640011 15.5043508,38.4640011 C4.83503664,38.4640011 0.354569354,31.1680009 0.289943173,23.7760007 C0.257868621,16.3200005 5.12513884,8.76800026 15.5043508,8.76800026 C19.4046137,8.76800026 23.0792416,10.2400003 26.0447307,13.1200004 L22.43457,16.5760005 C20.5650225,14.7520004 18.0185699,13.8880004 15.5043508,13.8880004 C8.57413164,13.8880004 5.57640893,19.0080006 5.64087608,23.7760007 C5.67310966,28.4800008 8.41296375,33.408001 15.5043508,33.408001 C18.0185699,33.408001 20.8228911,32.384001 22.7246722,30.5280009 L26.3993001,34.240001 Z" id="Path" fill="#201F4B" fill-rule="nonzero"></path>
                    <polygon id="Path" fill="#D8232A" fill-rule="nonzero" points="29.4937235 37.8240011 29.4937235 9.34400028 34.876731 9.34400028 34.876731 37.8240011"></polygon>
                    <path d="M54.9582498,0.99200003 C55.6673885,-0.0960000029 57.1501331,0.224000007 58.2460747,0.032000001 C58.2783083,3.10400009 58.3105419,6.14400018 58.2138412,9.21600027 C55.6673885,9.15200027 53.1209359,9.18400027 50.5744833,9.21600027 C51.509257,6.24000019 53.1209359,3.4880001 54.9582498,0.99200003 Z" id="Path" fill="#201F4B" fill-rule="nonzero"></path>
                    <path d="M60.4057244,0.160000005 C61.1470967,0.160000005 61.9207026,0.160000005 62.6620749,0.128000004 C64.789491,2.75200008 66.5623378,5.72800017 67.6260458,8.96000027 C65.2407611,8.99200027 62.8554763,8.96000027 60.4701916,8.96000027 C60.3412573,6.04800018 60.437958,3.10400009 60.4057244,0.160000005 Z" id="Path" fill="#201F4B" fill-rule="nonzero"></path>
                    <path d="M50.0265124,2.08000006 C50.7034176,1.69600005 51.4125563,1.40800004 52.1539286,1.18400004 C52.0249943,1.79200005 51.7671256,2.36800007 51.3480891,2.81600008 C50.9290526,2.56000008 50.4777825,2.30400007 50.0265124,2.08000006 Z" id="Path" fill="#262262" fill-rule="nonzero"></path>
                    <path d="M66.1110677,1.31200004 C70.5270678,2.27200007 74.2983964,5.37600016 76.9093162,8.96000027 C74.5884986,8.96000027 72.267681,9.08800027 69.9468634,8.92800027 C68.8509218,6.27200019 67.7227465,3.68000011 66.1110677,1.31200004 Z" id="Path" fill="#201F4B" fill-rule="nonzero"></path>
                    <path d="M42.0003516,8.96000027 C43.8698991,5.88800018 46.9643226,3.84000011 50.0265124,2.08000006 C50.4777825,2.30400007 50.9290526,2.56000008 51.3480891,2.81600008 C50.0909796,4.70400014 49.1562058,6.7840002 48.4470671,8.96000027 C46.319651,9.02400027 44.1600013,8.99200027 42.0003516,8.96000027 Z" id="Path" fill="#201F4B" fill-rule="nonzero"></path>
                    <path d="M69.7212284,34.400001 C69.9146298,34.272001 70.2691992,34.016001 70.4626006,33.856001 C72.5900168,33.920001 74.6851993,33.856001 76.8126154,33.888001 C76.2968782,35.3600011 75.0397687,36.3520011 73.943827,37.4080011 C71.8164109,39.4560012 69.1732575,40.8640012 66.4334034,41.9520013 C66.4011699,41.0560012 66.9813743,40.3200012 67.4004108,39.5840012 C68.3996517,37.9520011 69.1732575,36.1920011 69.7212284,34.400001 Z" id="Path" fill="#201F4B" fill-rule="nonzero"></path>
                    <path d="M37.7132858,20.4800006 C38.0356216,17.1840005 38.7769939,13.7600004 40.7110085,11.0080003 C43.0640597,11.2000003 45.4493444,10.7520003 47.770162,11.3280003 C46.8353883,14.2720004 46.4163517,17.3760005 46.4163517,20.4800006 C43.5153298,20.4800006 40.6143078,20.4800006 37.7132858,20.4800006 Z" id="Path" fill="#201F4B" fill-rule="nonzero"></path>
                    <path d="M49.8653446,11.4240003 C49.9942789,11.3280003 50.2843811,11.1680003 50.4133154,11.0720003 C53.0564687,11.0080003 55.6996221,10.9760003 58.3105419,11.1360003 C58.2783083,14.2720004 58.375009,17.3760005 58.2460747,20.5120006 C55.022717,20.4480006 51.7671256,20.4800006 48.5115343,20.4800006 C48.4470671,17.4400005 48.995038,14.3680004 49.8653446,11.4240003 Z" id="Path" fill="#201F4B" fill-rule="nonzero"></path>
                    <path d="M60.4701916,11.5520003 C60.5991259,11.4560003 60.8247609,11.2320003 60.9536952,11.1360003 C63.5001479,11.0400003 66.0788341,10.8480003 68.5930531,11.3280003 C69.2377247,14.3360004 69.8179291,17.4080005 69.9468634,20.4800006 C66.9169071,20.4480006 63.8869508,20.5120006 60.8569945,20.4480006 C60.7602938,20.3200006 60.5668923,20.0640006 60.4701916,19.9360006 C60.4057244,17.1520005 60.3412573,14.3360004 60.4701916,11.5520003 Z" id="Path" fill="#201F4B" fill-rule="nonzero"></path>
                    <path d="M70.591535,11.2960003 C72.493316,10.8800003 74.4595643,11.1040003 76.3935789,11.0400003 C77.1027176,11.1040003 78.1019585,10.8480003 78.5532286,11.5840003 C80.1326739,14.3040004 80.8418126,17.4080005 81.1319148,20.4800006 C78.1019585,20.5120006 75.1042358,20.4480006 72.0742795,20.5120006 C71.7519437,17.4080005 71.4940751,14.3040004 70.591535,11.2960003 Z" id="Path" fill="#201F4B" fill-rule="nonzero"></path>
                    <path d="M48.5437679,22.6240007 C51.7671256,22.6240007 55.022717,22.6240007 58.2460747,22.6240007 C58.3427755,25.6960008 58.2460747,28.7680009 58.2783083,31.8400009 C57.3757681,31.936001 56.4409944,32.064001 55.5062206,31.968001 C53.5399724,31.7120009 51.5414906,32.288001 49.6074759,31.6800009 C49.2851402,28.6400009 48.3503664,25.6960008 48.5437679,22.6240007 Z" id="Path" fill="#201F4B" fill-rule="nonzero"></path>
                    <path d="M70.0113306,22.6240007 C66.7879728,22.6240007 63.5323815,22.6240007 60.3090237,22.6240007 C60.212323,25.6960008 60.3090237,28.7680009 60.2767901,31.8400009 C61.1793303,31.936001 62.114104,32.064001 63.0488778,31.968001 C65.015126,31.7120009 67.0136078,32.288001 68.9476225,31.6800009 C69.2699583,28.6400009 70.204732,25.6960008 70.0113306,22.6240007 Z" id="Path" fill="#201F4B" fill-rule="nonzero"></path>
                    <path d="M72.0420459,22.6240007 C75.0397687,22.6240007 78.0374914,22.5920007 81.0352141,22.6560007 C80.9062798,25.6640008 80.0682068,28.6720009 78.6821629,31.3600009 C78.3920607,32.064001 77.4895206,32.000001 76.8770826,32.064001 C74.8141336,32.064001 72.7189511,32.160001 70.6560021,31.904001 C71.3973744,28.8320009 71.8808781,25.7280008 72.0420459,22.6240007 Z" id="Path" fill="#201F4B" fill-rule="nonzero"></path>
                    <path d="M50.6067168,34.208001 C53.0887023,33.536001 55.6996221,34.048001 58.2138412,33.888001 C58.3427755,36.9600011 58.2460747,40.0000012 58.2783083,43.0720013 C57.2468338,42.9120013 55.9252571,43.1680013 55.1516513,42.3040013 C53.1531695,39.9040012 51.8638264,37.0240011 50.6067168,34.208001 Z" id="Path" fill="#201F4B" fill-rule="nonzero"></path>
                    <path d="M37.7132858,22.6240007 C40.4853735,22.6240007 43.2252276,22.5600007 45.9973152,22.6240007 C46.094016,22.7200007 46.2874174,22.9120007 46.3841182,22.9760007 C46.5130525,25.9520008 46.8353883,28.9280009 47.7379284,31.7440009 C45.5782787,32.000001 43.3541619,31.6160009 41.1945122,32.000001 C40.9688771,31.904001 40.517607,31.7120009 40.3242056,31.6160009 C38.841461,28.8640009 38.0678551,25.7600008 37.7132858,22.6240007 Z" id="Path" fill="#201F4B" fill-rule="nonzero"></path>
                    <path d="M42.6772567,35.104001 C42.354921,34.752001 42.2904538,34.304001 42.1937531,33.856001 C44.1277677,33.920001 46.094016,33.824001 48.0602642,33.920001 C48.8338701,34.560001 48.995038,35.6160011 49.4140745,36.4480011 C50.0909796,38.3680011 51.283622,40.0000012 52.1539286,41.8240012 C48.4793007,40.3840012 45.0625415,38.1760011 42.6772567,35.104001 Z" id="Path" fill="#201F4B" fill-rule="nonzero"></path>
                    <path d="M60.4057244,34.816001 C60.2767901,34.112001 61.2115639,33.856001 61.7595347,33.888001 C63.7257829,33.856001 65.6920312,33.856001 67.6260458,33.952001 C66.7235056,36.9280011 65.1440603,39.6800012 63.2745128,42.1440013 C62.726542,43.1360013 61.5016661,42.9440013 60.5668923,43.0400013 C60.2767901,40.3200012 60.437958,37.5680011 60.4057244,34.816001 Z" id="Path" fill="#201F4B" fill-rule="nonzero"></path>
                </g>
                <g id="Group" transform="translate(0.000000, 46.080001)">
                    <g fill="#D8232A" fill-rule="nonzero">
                        <path d="M3.77132858,2.65600008 L0.0322335776,2.65600008 L0.0322335776,0.640000019 C3.4489928,0.640000019 6.31778121,0.640000019 9.73454044,0.640000019 L9.73454044,2.65600008 L5.99544543,2.65600008 L5.99544543,12.3520004 L3.77132858,12.3520004 L3.77132858,2.65600008 Z" id="Path"></path>
                        <polygon id="Path" points="19.1145115 12.3840004 19.1145115 7.64800023 13.3124676 7.64800023 13.3124676 12.3840004 11.0883507 12.3840004 11.0883507 0.67200002 13.3124676 0.67200002 13.3124676 5.60000017 19.1145115 5.60000017 19.1145115 0.67200002 21.3386284 0.67200002 21.3386284 12.3840004"></polygon>
                        <path d="M32.2335776,12.3840004 L23.4015773,12.3840004 C23.4015773,8.48000025 23.4015773,4.57600014 23.4015773,0.67200002 L32.2335776,0.67200002 L32.2335776,2.81600008 L25.5934606,2.81600008 L25.5934606,5.50400016 L31.975709,5.50400016 L31.975709,7.55200023 L25.5934606,7.55200023 L25.5934606,10.2080003 L32.2335776,10.2080003 L32.2335776,12.3840004 Z" id="Path"></path>
                        <path d="M46.1262495,3.5200001 C45.3204101,2.75200008 44.1600013,2.33600007 43.1285268,2.33600007 C40.6143078,2.33600007 39.0670961,4.25600013 39.0670961,6.6560002 C39.0670961,8.57600026 40.1952713,10.5600003 43.1285268,10.5600003 C44.0633006,10.5600003 44.86914,10.3680003 45.8039138,9.63200029 L45.8039138,7.55200023 L42.7739575,7.55200023 L42.7739575,5.56800017 L47.8346292,5.56800017 L47.8346292,10.4960003 C46.6742204,11.8080004 45.1914758,12.6080004 43.1285268,12.6080004 C38.6802931,12.6080004 36.8752128,9.69600029 36.8752128,6.6240002 C36.8752128,3.3280001 38.9381617,0.288000009 43.1285268,0.288000009 C44.7079721,0.288000009 46.2874174,0.896000027 47.5122934,2.08000006 L46.1262495,3.5200001 Z" id="Path"></path>
                        <polygon id="Path" points="51.8638264 0.640000019 51.8638264 10.3040003 57.923739 10.3040003 57.923739 12.3520004 49.6397095 12.3520004 49.6397095 0.640000019"></polygon>
                        <path d="M70.7849364,6.5600002 C70.7527028,9.60000029 68.8831553,12.6080004 64.7250238,12.6080004 C60.5668923,12.6080004 58.6651112,9.63200029 58.6651112,6.5600002 C58.6651112,3.4880001 60.663593,0.384000011 64.7250238,0.384000011 C68.7864546,0.416000012 70.81717,3.5200001 70.7849364,6.5600002 Z M60.8247609,6.6240002 C60.8892281,8.54400025 61.9207026,10.6240003 64.6927902,10.6240003 C67.4648779,10.6240003 68.528586,8.54400025 68.5608196,6.6240002 C68.5930531,4.64000014 67.4971115,2.43200007 64.6927902,2.43200007 C61.9207026,2.43200007 60.7925274,4.64000014 60.8247609,6.6240002 Z" id="Shape"></path>
                        <path d="M82.0022214,4.03200012 C82.0022214,4.92800015 81.5509513,5.79200017 80.4550097,6.30400019 C81.8410535,6.7200002 82.3567908,8.19200024 82.3567908,8.92800027 C82.3567908,11.5520003 80.3905425,12.3840004 77.9407906,12.3840004 C76.0712431,12.3840004 74.2016956,12.3840004 72.3321481,12.3840004 L72.3321481,0.640000019 C74.2016956,0.640000019 76.0712431,0.640000019 77.9407906,0.640000019 C80.2616082,0.640000019 82.0022214,1.69600005 82.0022214,4.03200012 Z M74.5240314,5.34400016 L77.9407906,5.34400016 C79.3268345,5.34400016 79.8103381,4.76800014 79.8103381,4.09600012 C79.8103381,3.55200011 79.3590681,2.65600008 77.9407906,2.65600008 L74.5240314,2.65600008 L74.5240314,5.34400016 Z M74.5240314,10.3040003 L77.9407906,10.3040003 C78.8433308,10.3040003 80.1649075,10.0160003 80.1649075,8.89600027 C80.1649075,7.84000023 78.8755644,7.29600022 77.9407906,7.29600022 L74.5240314,7.29600022 L74.5240314,10.3040003 Z" id="Shape"></path>
                        <path d="M92.3169663,10.1440003 L86.1281194,10.1440003 L85.1288784,12.3520004 L82.7113601,12.3520004 L87.9976669,0.640000019 L90.4151852,0.640000019 L95.7014919,12.3520004 L93.2839736,12.3520004 L92.3169663,10.1440003 Z M89.2225428,3.10400009 L87.0306595,8.09600024 L91.4144261,8.09600024 L89.2225428,3.10400009 Z" id="Shape"></path>
                        <polygon id="Path" points="99.1504847 0.640000019 99.1504847 10.3040003 105.210397 10.3040003 105.210397 12.3520004 96.9263679 12.3520004 96.9263679 0.640000019"></polygon>
                        <path d="M120.585814,10.8800003 C119.360938,12.0640004 117.813726,12.6080004 116.105347,12.6080004 C111.72158,12.6080004 109.852032,9.60000029 109.852032,6.5600002 C109.819799,3.4880001 111.850514,0.384000011 116.105347,0.384000011 C117.717025,0.384000011 119.232004,0.99200003 120.424646,2.17600006 L118.941901,3.58400011 C118.168295,2.81600008 117.104587,2.46400007 116.105347,2.46400007 C113.268792,2.46400007 112.011682,4.57600014 112.043916,6.52800019 C112.076149,8.48000025 113.204325,10.4960003 116.105347,10.4960003 C117.136821,10.4960003 118.29723,10.0800003 119.070836,9.31200028 L120.585814,10.8800003 Z" id="Path"></path>
                        <polygon id="Path" points="121.875157 12.3840004 121.875157 0.640000019 124.099274 0.640000019 124.099274 12.3520004 121.875157 12.3520004"></polygon>
                        <path d="M138.12088,6.5600002 C138.088646,9.60000029 136.219099,12.6080004 132.060967,12.6080004 C127.902836,12.6080004 126.001055,9.63200029 126.001055,6.5600002 C126.001055,3.4880001 127.999537,0.384000011 132.060967,0.384000011 C136.154632,0.416000012 138.153114,3.5200001 138.12088,6.5600002 Z M128.192938,6.6240002 C128.257405,8.54400025 129.28888,10.6240003 132.060967,10.6240003 C134.833055,10.6240003 135.896763,8.54400025 135.928997,6.6240002 C135.96123,4.64000014 134.865289,2.43200007 132.060967,2.43200007 C129.28888,2.43200007 128.160705,4.64000014 128.192938,6.6240002 Z" id="Shape"></path>
                    </g>
                    <g transform="translate(0.000000, 15.040000)" fill="#201F4B" fill-rule="nonzero">
                        <rect id="Rectangle" x="0.0322335776" y="3.3920001" width="77.3283527" height="1.31200004"></rect>
                        <g transform="translate(81.228616, 0.000000)">
                            <path d="M7.63935789,4.06400012 C7.60712431,5.92000018 6.4789491,7.77600023 3.93249647,7.77600023 C1.38604384,7.77600023 0.225635043,5.95200018 0.225635043,4.06400012 C0.225635043,2.17600006 1.45051099,0.288000009 3.93249647,0.288000009 C6.41448194,0.288000009 7.67159147,2.20800007 7.63935789,4.06400012 Z M1.54721172,4.09600012 C1.5794453,5.28000016 2.22411685,6.52800019 3.93249647,6.52800019 C5.64087608,6.52800019 6.28554763,5.24800016 6.28554763,4.06400012 C6.31778121,2.84800008 5.6086425,1.50400004 3.93249647,1.50400004 C2.22411685,1.53600005 1.51497815,2.88000009 1.54721172,4.09600012 Z" id="Shape"></path>
                            <polygon id="Path" points="12.7967303 7.61600023 12.7967303 0.448000013 17.9863363 0.448000013 17.9863363 1.76000005 14.1505406 1.76000005 14.1505406 3.71200011 17.7929348 3.71200011 17.7929348 4.96000015 14.1505406 4.96000015 14.1505406 7.61600023 12.7967303 7.61600023"></polygon>
                            <polygon id="Path" points="23.0792416 7.61600023 23.0792416 0.448000013 28.2688476 0.448000013 28.2688476 1.76000005 24.4330518 1.76000005 24.4330518 3.71200011 28.0432125 3.71200011 28.0432125 4.96000015 24.4008182 4.96000015 24.4008182 7.61600023 23.0792416 7.61600023"></polygon>
                            <polygon id="Path" points="33.4584536 7.61600023 33.4584536 0.416000012 34.8122638 0.416000012 34.8122638 7.61600023"></polygon>
                            <path d="M46.6097532,6.7200002 C45.8683809,7.45600022 44.9013736,7.77600023 43.8698991,7.77600023 C41.1945122,7.77600023 40.0341034,5.95200018 40.0341034,4.06400012 C40.0341034,2.17600006 41.2589793,0.288000009 43.8698991,0.288000009 C44.8369064,0.288000009 45.7716802,0.67200002 46.5130525,1.37600004 L45.6105123,2.24000007 C45.1270086,1.79200005 44.4823371,1.56800005 43.8698991,1.56800005 C42.1292859,1.56800005 41.3556801,2.84800008 41.3879136,4.06400012 C41.3879136,5.24800016 42.0970523,6.49600019 43.8698991,6.49600019 C44.5145707,6.49600019 45.2237094,6.24000019 45.6749795,5.76000017 L46.6097532,6.7200002 Z" id="Path"></path>
                            <path d="M56.8922645,7.61600023 L51.4770234,7.61600023 C51.4770234,5.21600016 51.4770234,2.81600008 51.4770234,0.416000012 L56.8922645,0.416000012 L56.8922645,1.72800005 L52.8308337,1.72800005 L52.8308337,3.3920001 L56.7633302,3.3920001 L56.7633302,4.64000014 L52.8308337,4.64000014 L52.8308337,6.27200019 L56.8922645,6.27200019 L56.8922645,7.61600023 Z" id="Path"></path>
                        </g>
                    </g>
                </g>
            </g>
        </g>
    </g>
</svg>